<mxfile host="app.diagrams.net" modified="2021-03-11T08:44:57.472Z" agent="5.0 (Macintosh; Intel Mac OS X 11_2_2) AppleWebKit/537.36 (KHTML, like Gecko) Chrome/88.0.4324.192 Safari/537.36" etag="3vjeoNAvBZdiW4r_EDwI" version="14.4.7" type="github">
  <diagram id="E1ys0N0okLBDzgMX0jAd" name="Page-1">
    <mxGraphModel dx="1065" dy="721" grid="1" gridSize="10" guides="1" tooltips="1" connect="1" arrows="1" fold="1" page="1" pageScale="1" pageWidth="827" pageHeight="1169" math="0" shadow="0">
      <root>
        <mxCell id="0" />
        <mxCell id="1" parent="0" />
        <mxCell id="VSME9l8u-F_JxG_ymEzv-1" value="主系統" style="rounded=1;whiteSpace=wrap;html=1;" vertex="1" parent="1">
          <mxGeometry x="310" y="190" width="120" height="60" as="geometry" />
        </mxCell>
        <mxCell id="VSME9l8u-F_JxG_ymEzv-4" value="" style="edgeStyle=orthogonalEdgeStyle;rounded=0;orthogonalLoop=1;jettySize=auto;html=1;" edge="1" parent="1" source="VSME9l8u-F_JxG_ymEzv-2" target="VSME9l8u-F_JxG_ymEzv-3">
          <mxGeometry relative="1" as="geometry" />
        </mxCell>
        <mxCell id="VSME9l8u-F_JxG_ymEzv-8" style="edgeStyle=orthogonalEdgeStyle;rounded=0;orthogonalLoop=1;jettySize=auto;html=1;exitX=0.5;exitY=0;exitDx=0;exitDy=0;entryX=0.5;entryY=1;entryDx=0;entryDy=0;" edge="1" parent="1" source="VSME9l8u-F_JxG_ymEzv-2" target="VSME9l8u-F_JxG_ymEzv-1">
          <mxGeometry relative="1" as="geometry" />
        </mxCell>
        <mxCell id="VSME9l8u-F_JxG_ymEzv-13" style="edgeStyle=orthogonalEdgeStyle;rounded=0;orthogonalLoop=1;jettySize=auto;html=1;exitX=1;exitY=0.5;exitDx=0;exitDy=0;" edge="1" parent="1" source="VSME9l8u-F_JxG_ymEzv-2" target="VSME9l8u-F_JxG_ymEzv-10">
          <mxGeometry relative="1" as="geometry" />
        </mxCell>
        <mxCell id="VSME9l8u-F_JxG_ymEzv-2" value="身份認證模塊" style="rounded=1;whiteSpace=wrap;html=1;" vertex="1" parent="1">
          <mxGeometry x="310" y="350" width="120" height="60" as="geometry" />
        </mxCell>
        <mxCell id="VSME9l8u-F_JxG_ymEzv-7" style="edgeStyle=orthogonalEdgeStyle;rounded=0;orthogonalLoop=1;jettySize=auto;html=1;exitX=0.5;exitY=0;exitDx=0;exitDy=0;entryX=0;entryY=1;entryDx=0;entryDy=0;" edge="1" parent="1" source="VSME9l8u-F_JxG_ymEzv-3" target="VSME9l8u-F_JxG_ymEzv-1">
          <mxGeometry relative="1" as="geometry" />
        </mxCell>
        <mxCell id="VSME9l8u-F_JxG_ymEzv-3" value="權限系統" style="whiteSpace=wrap;html=1;rounded=1;" vertex="1" parent="1">
          <mxGeometry x="140" y="350" width="120" height="60" as="geometry" />
        </mxCell>
        <mxCell id="VSME9l8u-F_JxG_ymEzv-12" style="edgeStyle=orthogonalEdgeStyle;rounded=0;orthogonalLoop=1;jettySize=auto;html=1;exitX=0.5;exitY=0;exitDx=0;exitDy=0;entryX=1;entryY=1;entryDx=0;entryDy=0;" edge="1" parent="1" source="VSME9l8u-F_JxG_ymEzv-10" target="VSME9l8u-F_JxG_ymEzv-1">
          <mxGeometry relative="1" as="geometry" />
        </mxCell>
        <mxCell id="VSME9l8u-F_JxG_ymEzv-10" value="門戶統計模塊" style="rounded=1;whiteSpace=wrap;html=1;" vertex="1" parent="1">
          <mxGeometry x="470" y="350" width="120" height="60" as="geometry" />
        </mxCell>
        <mxCell id="VSME9l8u-F_JxG_ymEzv-14" value="bootstrap事件管理器" style="rounded=1;whiteSpace=wrap;html=1;" vertex="1" parent="1">
          <mxGeometry x="310" y="680" width="120" height="60" as="geometry" />
        </mxCell>
        <mxCell id="VSME9l8u-F_JxG_ymEzv-16" style="edgeStyle=orthogonalEdgeStyle;rounded=0;orthogonalLoop=1;jettySize=auto;html=1;exitX=0.5;exitY=0;exitDx=0;exitDy=0;entryX=0.5;entryY=1;entryDx=0;entryDy=0;" edge="1" parent="1" source="VSME9l8u-F_JxG_ymEzv-18" target="VSME9l8u-F_JxG_ymEzv-14">
          <mxGeometry relative="1" as="geometry" />
        </mxCell>
        <mxCell id="VSME9l8u-F_JxG_ymEzv-18" value="身份認證模塊" style="rounded=1;whiteSpace=wrap;html=1;" vertex="1" parent="1">
          <mxGeometry x="310" y="820" width="120" height="60" as="geometry" />
        </mxCell>
        <mxCell id="VSME9l8u-F_JxG_ymEzv-19" style="edgeStyle=orthogonalEdgeStyle;rounded=0;orthogonalLoop=1;jettySize=auto;html=1;exitX=0.5;exitY=0;exitDx=0;exitDy=0;entryX=0;entryY=1;entryDx=0;entryDy=0;" edge="1" parent="1" source="VSME9l8u-F_JxG_ymEzv-20" target="VSME9l8u-F_JxG_ymEzv-14">
          <mxGeometry relative="1" as="geometry" />
        </mxCell>
        <mxCell id="VSME9l8u-F_JxG_ymEzv-20" value="權限系統" style="whiteSpace=wrap;html=1;rounded=1;" vertex="1" parent="1">
          <mxGeometry x="140" y="820" width="120" height="60" as="geometry" />
        </mxCell>
        <mxCell id="VSME9l8u-F_JxG_ymEzv-21" style="edgeStyle=orthogonalEdgeStyle;rounded=0;orthogonalLoop=1;jettySize=auto;html=1;exitX=0.5;exitY=0;exitDx=0;exitDy=0;entryX=1;entryY=1;entryDx=0;entryDy=0;" edge="1" parent="1" source="VSME9l8u-F_JxG_ymEzv-22" target="VSME9l8u-F_JxG_ymEzv-14">
          <mxGeometry relative="1" as="geometry" />
        </mxCell>
        <mxCell id="VSME9l8u-F_JxG_ymEzv-22" value="門戶統計模塊" style="rounded=1;whiteSpace=wrap;html=1;" vertex="1" parent="1">
          <mxGeometry x="480" y="820" width="120" height="60" as="geometry" />
        </mxCell>
        <mxCell id="VSME9l8u-F_JxG_ymEzv-23" value="主系統" style="rounded=1;whiteSpace=wrap;html=1;" vertex="1" parent="1">
          <mxGeometry x="310" y="580" width="120" height="50" as="geometry" />
        </mxCell>
        <mxCell id="VSME9l8u-F_JxG_ymEzv-24" value="" style="endArrow=none;html=1;entryX=0.5;entryY=1;entryDx=0;entryDy=0;exitX=0.5;exitY=0;exitDx=0;exitDy=0;" edge="1" parent="1" source="VSME9l8u-F_JxG_ymEzv-14" target="VSME9l8u-F_JxG_ymEzv-23">
          <mxGeometry width="50" height="50" relative="1" as="geometry">
            <mxPoint x="430" y="700" as="sourcePoint" />
            <mxPoint x="480" y="650" as="targetPoint" />
          </mxGeometry>
        </mxCell>
      </root>
    </mxGraphModel>
  </diagram>
</mxfile>
